<svg height="512pt" viewBox="0 0 512 512" width="512pt" xmlns="http://www.w3.org/2000/svg"><path d="m484.078125 27.925781c-18.007813-18.007812-41.945313-27.925781-67.414063-27.925781-25.460937 0-49.402343 9.917969-67.410156 27.925781l-344.859375 344.855469c-2.816406 2.816406-4.394531 6.628906-4.394531 10.609375v113.605469c0 8.285156 6.71875 15 15 15h113.609375c3.980469 0 7.792969-1.578125 10.605469-4.390625l344.859375-344.863281c18.007812-18.003907 27.925781-41.945313 27.925781-67.410157 0-25.464843-9.917969-49.402343-27.921875-67.40625zm-95.8125 188.203125-92.398437-92.394531 35.59375-35.589844 92.394531 92.394531zm-202.851563 202.851563-92.394531-92.394531 181.636719-181.636719 92.394531 92.394531zm-63.015624 63.015625h-92.398438v-92.394532l41.804688-41.804687 92.398437 92.394531zm340.464843-340.46875-17.796875 17.796875-92.394531-92.394531 17.796875-17.792969c12.339844-12.339844 28.746094-19.136719 46.195312-19.136719 17.453126 0 33.859376 6.796875 46.199219 19.136719 12.339844 12.339843 19.136719 28.746093 19.136719 46.195312s-6.796875 33.855469-19.136719 46.195313zm0 0"/></svg>