<?xml version="1.0" encoding="iso-8859-1"?>
<!-- Generator: Adobe Illustrator 19.0.0, SVG Export Plug-In . SVG Version: 6.00 Build 0)  -->
<svg version="1.1" id="Capa_1" xmlns="http://www.w3.org/2000/svg" xmlns:xlink="http://www.w3.org/1999/xlink" x="0px" y="0px"
	 viewBox="0 0 512.002 512.002" style="enable-background:new 0 0 512.002 512.002;" xml:space="preserve">
<g>
	<g>
		<path d="M503.409,435.091c-24.842-28.014-62.143-41.433-98.514-36.876l-13.104-60.174c27.302-10.996,50.151-31.068,63.402-57.71
			c11.445-23.01,15.063-48.864,10.893-73.789c-12.003,0.167-23.898,5.105-34.306,14.591c-32.952,30.051-77.24,30.044-110.167-0.015
			c-21.524-19.62-48.231-19.62-69.755,0c-7.916,7.226-16.507,12.615-25.415,16.368l0.773,5.581
			c4.744,34.336,24.028,65.011,52.902,84.162c20.001,13.28,43.296,20.162,66.856,20.162c5.321,0,10.655-0.37,15.971-1.08
			l12.971,59.583c-34.321,14.058-59.5,44.005-67.074,81.059c-1.735,8.481-3.671,14.578,2.987,20.85
			c3.869,3.666,9.311,4.894,14.159,3.572l174.786-46.562c5.022-1.347,8.99-5.198,10.483-10.162
			C513.885,445.891,509.152,441.568,503.409,435.091z"/>
	</g>
</g>
<g>
	<g>
		<path d="M136.199,405.933l13.491-59.643c5.259,0.699,10.524,1.058,15.764,1.058c24.628,0,48.604-7.728,68.75-21.508
			c-19.374-22.007-32.603-49.066-36.698-78.674l-0.487-3.515c-19.388,0.064-38.787-7.431-55.329-22.532
			c-20.226-18.442-47.542-20.248-69.755,0c-8.082,7.378-16.857,12.896-25.968,16.654c1.374,14.639,4.902,29.112,11.589,42.559
			c13.234,26.606,36.041,46.663,63.295,57.67l-13.632,60.24c-36.404-4.59-73.773,8.809-98.627,36.85
			c-5.743,6.477-10.476,10.8-7.849,19.562c1.494,4.963,5.463,8.814,10.484,10.161l174.786,46.562
			c4.848,1.321,10.29,0.093,14.159-3.572c6.658-6.272,4.722-12.369,2.987-20.85C195.594,449.938,170.463,420.008,136.199,405.933z"
			/>
	</g>
</g>
<g>
	<g>
		<path d="M256.002,0.111c-8.287,0-14.993,6.706-14.993,14.993v29.987c0,8.287,6.706,14.993,14.993,14.993
			c8.287,0,14.993-6.706,14.993-14.993V15.105C270.995,6.817,264.289,0.111,256.002,0.111z"/>
	</g>
</g>
<g>
	<g>
		<path d="M206.628,34.491L176.641,4.504c-5.856-5.856-15.345-5.856-21.202,0s-5.856,15.345,0,21.202l29.987,29.987
			c5.856,5.856,15.345,5.856,21.202,0C212.485,49.836,212.485,40.348,206.628,34.491z"/>
	</g>
</g>
<g>
	<g>
		<path d="M356.563,4.504c-5.856-5.856-15.345-5.856-21.202,0l-29.987,29.987c-5.856,5.856-5.856,15.344,0,21.202
			c5.856,5.857,15.345,5.857,21.202,0l29.987-29.987C362.419,19.849,362.419,10.361,356.563,4.504z"/>
	</g>
</g>
<g>
	<g>
		<path d="M413.052,68.138c-2.841-6.984-10.439-10.806-17.775-8.829l-173.786,46.562c-7.307,1.962-12.007,9.049-10.967,16.531
			l11.576,83.683c3.264-2.004,6.47-4.295,9.552-7.105c32.945-30.075,77.222-30.075,110.167,0c21.524,19.62,48.231,19.62,69.755,0
			c13.394-12.228,29.403-19.365,45.976-21.416L413.052,68.138z"/>
	</g>
</g>
<g>
	<g>
		<path d="M202.739,82.158l-85.266-22.849c-7.219-1.947-14.92,1.845-17.775,8.829L53.809,180.984
			c-2.782,6.847-4.572,13.943-6.047,21.074c1.321-1.033,2.681-1.905,3.968-3.079c30.939-28.329,75.815-31.341,110.167,0
			c9.583,8.736,20.199,13.355,30.922,14.313l-12.005-86.776C178.284,108.267,187.529,91.208,202.739,82.158z"/>
	</g>
</g>
<g>
</g>
<g>
</g>
<g>
</g>
<g>
</g>
<g>
</g>
<g>
</g>
<g>
</g>
<g>
</g>
<g>
</g>
<g>
</g>
<g>
</g>
<g>
</g>
<g>
</g>
<g>
</g>
<g>
</g>
</svg>
